<svg width="164" height="66" viewBox="0 0 164 66" fill="none" xmlns="http://www.w3.org/2000/svg">
<path d="M49.6999 55.537C44.7379 61.3431 37.8958 64.9414 30.3551 64.9414H10.5036C4.83652 64.9414 0.919922 59.4284 0.919922 53.6805C0.919922 53.6805 0.92312 33.28 0.92312 33.1185C0.92312 27.0981 4.77577 21.6302 10.5979 21.6302C14.0078 21.6302 16.9572 23.8925 18.6741 27.0154C19.6924 28.8681 20.148 31.0685 20.0841 33.2725C20.0073 35.9558 20.1384 37.4496 20.2615 38.4661C20.9937 44.4489 25.3995 51.1288 32.8825 50.9409C40.2889 50.753 45.4876 42.615 45.4876 35.3394C45.4876 22.9643 32.4062 15.3919 30.5054 14.3885C20.3526 9.02952 10.1151 12.2859 4.6335 14.8695C2.85584 15.7075 0.919922 14.1799 0.919922 11.9288C0.919922 5.69051 5.22178 0.634094 10.5292 0.634094H29.6262C48.6065 0.634094 57.1527 18.6125 57.6498 30.469C58.1166 40.2587 55.0937 49.1972 49.6999 55.537Z" fill="#14B9C1"/>
<path d="M71.5 57.3352H77.0871V58.8271H71.5V64.9414H70.1348V51.8428H77.7298V53.3723H71.5V57.3352Z" fill="white"/>
<path d="M85.4551 64.9414H84.0898V51.8428H85.4551V64.9414Z" fill="white"/>
<path d="M101.481 64.9414H99.9724L93.9824 54.278V64.9414H92.6172V51.8428H94.1423L100.132 62.4874V51.8428H101.481V64.9414Z" fill="white"/>
<path d="M112.336 53.8045L110.521 59.637H114.118L112.336 53.8045ZM110.056 61.127L108.868 64.9414H107.39L111.597 51.8428H113.14L117.266 64.9414H115.741L114.567 61.127H110.056Z" fill="white"/>
<path d="M132.023 64.9414H130.514L124.524 54.278V64.9414H123.159V51.8428H124.686L130.674 62.4874V51.8428H132.023V64.9414Z" fill="white"/>
<path d="M144.004 65.168C140.954 65.168 138.48 62.1108 138.48 58.3359C138.48 54.5797 140.954 51.5226 144.004 51.5226C146.541 51.5226 148.403 53.2964 149.11 55.8819H147.68C147.071 54.2396 145.818 53.0502 144.004 53.0502C141.708 53.0502 139.828 55.4478 139.828 58.3359C139.828 61.2239 141.708 63.6197 144.004 63.6197C145.642 63.6197 147.007 62.5261 147.68 60.7899H149.11C148.355 63.4506 146.397 65.168 144.004 65.168Z" fill="white"/>
<path d="M163.273 51.8428V53.3723H156.674V57.3352H162.632V58.8628H156.674V63.3931H163.273V64.9414H155.309V51.8428H163.273Z" fill="white"/>
<path d="M85.8448 32.7064C84.6123 34.1664 82.9081 35.0627 81.0154 35.0627C77.2507 35.0627 74.1909 31.4681 74.1909 27.0299C74.1909 24.8183 74.9534 22.8153 76.1876 21.3553C77.4297 19.9066 79.1338 19.0103 81.0154 19.0103C82.9081 19.0103 84.6123 19.9066 85.8448 21.3553C87.0773 22.8153 87.8398 24.8183 87.8398 27.0299C87.8398 29.2547 87.0773 31.2577 85.8448 32.7064ZM90.7573 15.5792C90.5415 15.3256 90.3257 15.0813 90.0987 14.8614C87.68 12.3492 84.4988 10.8328 81.0154 10.8328C77.2139 10.8328 73.7689 12.648 71.2734 15.5792C68.7796 18.5124 67.2354 22.5616 67.2354 27.0299C67.2354 35.9815 73.4108 43.2383 81.0154 43.2383C84.5739 43.2383 87.8111 41.6562 90.241 39.0575C90.4184 38.879 90.5895 38.6911 90.7573 38.4919C93.2527 35.5606 94.7954 31.5114 94.7954 27.0299C94.7954 22.5616 93.2527 18.5124 90.7573 15.5792Z" fill="white"/>
<path d="M94.7992 43.2344C92.2014 43.2344 90.0977 40.7597 90.0977 37.7082V6.16146C90.0977 3.10807 92.2014 0.633408 94.7992 0.633408C97.3969 0.633408 99.5007 3.10807 99.5007 6.16146V37.7082C99.5007 40.7597 97.3969 43.2344 94.7992 43.2344Z" fill="white"/>
<path d="M135.392 32.7064C134.159 34.1664 132.455 35.0627 130.572 35.0627C126.798 35.0627 123.748 31.4681 123.748 27.0299C123.748 24.8183 124.512 22.8153 125.744 21.3553C126.977 19.9066 128.69 19.0103 130.572 19.0103C132.455 19.0103 134.159 19.9066 135.392 21.3553C136.634 22.8153 137.396 24.8183 137.396 27.0299C137.396 29.2547 136.634 31.2577 135.392 32.7064ZM140.314 15.5792C140.098 15.3256 139.882 15.0813 139.646 14.8502C137.227 12.3492 134.046 10.8328 130.572 10.8328C126.771 10.8328 123.326 12.648 120.83 15.5792C118.336 18.5124 116.792 22.5616 116.792 27.0299C116.792 35.9815 122.958 43.2383 130.572 43.2383C134.111 43.2383 137.35 41.6674 139.788 39.0688C139.967 38.8902 140.146 38.6911 140.314 38.4919C142.809 35.5606 144.352 31.5114 144.352 27.0299C144.352 22.5616 142.809 18.5124 140.314 15.5792Z" fill="white"/>
<path d="M144.351 43.2344C141.755 43.2344 139.649 40.7597 139.649 37.7082V6.16146C139.649 3.10807 141.755 0.633408 144.351 0.633408C146.949 0.633408 149.052 3.10807 149.052 6.16146V37.7082C149.052 40.7597 146.949 43.2344 144.351 43.2344Z" fill="white"/>
<path d="M109.276 17.5895C106.678 17.5895 104.574 20.0642 104.574 23.1157V37.7062C104.574 40.7578 106.678 43.2324 109.276 43.2324C111.872 43.2324 113.977 40.7578 113.977 37.7062V23.1157C113.977 20.0642 111.872 17.5895 109.276 17.5895Z" fill="white"/>
<path d="M109.276 11.6875C111.872 11.6875 113.977 9.21284 113.977 6.16132C113.977 3.10793 111.872 0.63327 109.276 0.63327C106.678 0.63327 104.574 3.10793 104.574 6.16132C104.574 9.21284 106.678 11.6875 109.276 11.6875Z" fill="white"/>
<path d="M158.715 17.5895C156.119 17.5895 154.014 20.0642 154.014 23.1157V37.7062C154.014 40.7578 156.119 43.2324 158.715 43.2324C161.313 43.2324 163.417 40.7578 163.417 37.7062V23.1157C163.417 20.0642 161.313 17.5895 158.715 17.5895Z" fill="white"/>
<path d="M158.715 11.6875C161.313 11.6875 163.417 9.21284 163.417 6.16132C163.417 3.10793 161.313 0.63327 158.715 0.63327C156.119 0.63327 154.014 3.10793 154.014 6.16132C154.014 9.21284 156.119 11.6875 158.715 11.6875Z" fill="white"/>
</svg>
